<svg enable-background="new 0 0 1200 1200" height="24" viewBox="0 0 1200 1200" width="24" xmlns="http://www.w3.org/2000/svg"><path d="m669.727 273.516c-22.891-2.476-46.15-3.895-69.727-4.248-103.025.457-209.823 25.517-310.913 73.536-75.058 37.122-148.173 89.529-211.67 154.174-31.185 33-70.986 80.782-77.417 131.762.76 44.162 48.153 98.67 77.417 131.764 59.543 62.106 130.754 113.013 211.67 154.174 2.75 1.335 5.51 2.654 8.276 3.955l-75.072 131.102 102.005 60.286 551.416-960.033-98.186-60.008zm232.836 65.479-74.927 129.857c34.47 44.782 54.932 100.006 54.932 159.888 0 149.257-126.522 270.264-282.642 270.264-6.749 0-13.29-.728-19.922-1.172l-49.585 85.84c22.868 2.449 45.99 4.233 69.58 4.541 103.123-.463 209.861-25.812 310.84-73.535 75.058-37.122 148.246-89.529 211.743-154.174 31.186-32.999 70.985-80.782 77.417-131.764-.76-44.161-48.153-98.669-77.417-131.763-59.543-62.106-130.827-113.013-211.743-154.175-2.731-1.324-5.527-2.515-8.276-3.807zm-302.636 19.483c6.846 0 13.638.274 20.361.732l-58.081 100.561c-81.514 16.526-142.676 85.88-142.676 168.897 0 20.854 3.841 40.819 10.913 59.325.008.021-.008.053 0 .074l-58.228 100.854c-34.551-44.823-54.932-100.229-54.932-160.182.001-149.255 126.524-270.262 282.643-270.261zm168.969 212.035-130.883 226.758c81.076-16.837 141.797-85.875 141.797-168.603 0-20.474-4.086-39.939-10.914-58.155z"/></svg>