<svg enable-background="new 0 0 511.999 511.999" viewBox="0 0 511.999 511.999" xmlns="http://www.w3.org/2000/svg"><path d="m168.634 503.861h-14.945l-15.323-30.033h45.59z" fill="#333e48"/><path d="m343.364 503.861h14.946l15.324-30.033h-45.591z" fill="#333e48"/><path d="m403.728 98.035c0-18.809-15.39-34.198-34.199-34.198h-227.059c-18.809 0-34.198 15.389-34.198 34.198v346.401c0 18.809 15.389 34.198 34.198 34.198h227.058c18.809 0 34.199-15.389 34.199-34.198v-346.401z" fill="#61b8cc"/><ellipse cx="255.998" cy="145.384" fill="#333e48" rx="48.226" ry="20.519"/><path d="m304.324 8.139h-96.652c-5.266 0-9.575 4.308-9.575 9.576v5.927c0 5.266 4.309 9.575 9.575 9.575h5.262c.545 1.329 1.164 2.642 1.834 3.801 2.063 3.57 5.437 3.57 7.497 0 2.063-3.57 5.435-3.57 7.497 0 2.06 3.57 5.435 3.57 7.498 0 2.06-3.57 5.434-3.57 7.494 0 2.062 3.57 5.435 3.57 7.497 0s5.435-3.57 7.497 0c2.06 3.57 5.435 3.57 7.494 0 2.062-3.57 5.437-3.57 7.497 0 2.062 3.57 5.434 3.57 7.497 0 2.059-3.57 5.435-3.57 7.497 0 2.059 3.57 5.435 3.57 7.493 0 .67-1.159 1.291-2.472 1.837-3.801h5.261c5.265 0 9.575-4.308 9.575-9.575v-5.927c.001-5.268-4.309-9.576-9.575-9.576z" fill="#333e48"/><path d="m108.272 444.436c0 18.809 15.389 34.198 34.198 34.198h227.058c18.809 0 34.199-15.389 34.199-34.198z" fill="#5c6670"/><path d="m369.529 63.837h-227.059c-18.809 0-34.198 15.389-34.198 34.198v137.635h6.84v-137.635c0-15.085 12.273-27.358 27.358-27.358h227.058c15.085 0 27.359 12.274 27.359 27.358v137.635h6.84v-137.635c.001-18.809-15.39-34.198-34.198-34.198z" fill="#333e48"/><path d="m171.758 207.074c-4.495 0-8.139 3.644-8.139 8.139v181.809c0 4.495 3.644 8.139 8.139 8.139s8.139-3.644 8.139-8.139v-181.809c0-4.495-3.644-8.139-8.139-8.139zm197.771-151.376h-63.269v-14.454c8.86-.968 15.778-8.491 15.778-17.603v-5.927c.001-9.767-7.946-17.714-17.714-17.714h-96.652c-9.767 0-17.714 7.947-17.714 17.715v5.927c0 9.113 6.92 16.636 15.78 17.603v14.453h-63.269c-23.345 0-42.337 18.992-42.337 42.337v346.401c0 20.983 15.349 38.441 35.406 41.759l10.9 21.364c1.39 2.725 4.191 4.44 7.25 4.44h14.945c3.059 0 5.86-1.716 7.25-4.441l10.606-20.787h139.02l10.605 20.787c1.39 2.725 4.19 4.441 7.25 4.441h14.945c3.059 0 5.859-1.716 7.25-4.441l10.899-21.363c20.058-3.319 35.408-20.777 35.408-41.761v-346.4c.001-23.343-18.993-42.336-42.337-42.336zm-163.291-37.983c0-.765.671-1.437 1.436-1.437h96.652c.765 0 1.436.672 1.436 1.437v5.927c0 .765-.671 1.436-1.436 1.436h-5.261c-2.582 0-4.963 1.22-6.479 3.211-1.959-1.358-4.214-2.087-6.602-2.087-2.762 0-5.344.975-7.495 2.767-2.152-1.792-4.735-2.767-7.495-2.767s-5.342.973-7.495 2.768c-2.152-1.793-4.735-2.768-7.497-2.768-2.761 0-5.342.975-7.495 2.768-2.152-1.793-4.735-2.768-7.497-2.768-2.761 0-5.344.975-7.495 2.768-2.152-1.793-4.736-2.768-7.497-2.768-2.387 0-4.641.729-6.601 2.088-1.515-1.991-3.897-3.211-6.479-3.211h-5.262c-.765 0-1.436-.671-1.436-1.436v-5.928zm83.746 29.563v8.42h-67.966v-8.42c1.438-.463 2.787-1.201 3.998-2.209 2.152 1.792 4.735 2.767 7.497 2.767 2.76 0 5.341-.973 7.495-2.768 2.152 1.793 4.736 2.768 7.497 2.768 2.76 0 5.342-.975 7.495-2.768 2.152 1.793 4.735 2.768 7.497 2.768 2.761 0 5.344-.975 7.495-2.768 2.152 1.793 4.735 2.768 7.497 2.768 2.759 0 5.34-.973 7.494-2.768 1.21 1.007 2.56 1.747 4.001 2.21zm-126.334 448.444h-4.976l-4.566-8.95h14.108zm189.675 0h-4.976l-4.565-8.95h14.107zm16.204-25.228h-227.059c-11.527 0-21.323-7.526-24.75-17.92h276.56c-3.427 10.395-13.224 17.92-24.751 17.92zm26.06-34.197h-279.178v-338.262c0-14.369 11.69-26.059 26.059-26.059h227.058c14.369 0 26.06 11.69 26.06 26.059v338.262zm-181.71-229.223c-4.495 0-8.139 3.644-8.139 8.139v181.809c0 4.495 3.644 8.139 8.139 8.139s8.139-3.644 8.139-8.139v-181.809c0-4.495-3.645-8.139-8.139-8.139zm42.12-90.346c-13.951 0-27.192 2.365-37.284 6.66-16.598 7.062-19.077 16.814-19.077 21.998 0 18.814 28.353 28.658 56.361 28.658 13.949 0 27.19-2.366 37.282-6.66 16.597-7.062 19.076-16.814 19.076-21.998.001-18.814-28.351-28.658-56.358-28.658zm0 41.038c-26.301 0-40.083-9.199-40.083-12.38s13.782-12.38 40.083-12.38c26.299 0 40.081 9.198 40.081 12.38s-13.781 12.38-40.081 12.38zm84.24 49.308c-4.496 0-8.139 3.644-8.139 8.139v181.809c0 4.495 3.643 8.139 8.139 8.139s8.139-3.644 8.139-8.139v-181.809c0-4.495-3.643-8.139-8.139-8.139zm-42.12 0c-4.496 0-8.139 3.644-8.139 8.139v181.809c0 4.495 3.643 8.139 8.139 8.139s8.139-3.644 8.139-8.139v-181.809c0-4.495-3.644-8.139-8.139-8.139zm-42.121 0c-4.495 0-8.139 3.644-8.139 8.139v181.809c0 4.495 3.644 8.139 8.139 8.139 4.496 0 8.139-3.644 8.139-8.139v-181.809c0-4.495-3.643-8.139-8.139-8.139z" fill="#1e252b"/></svg>